<?xml version="1.0" encoding="UTF-8"?>
<svg version="1.1" viewBox="0 0 2048 2048" width="1280" height="1280" xmlns="http://www.w3.org/2000/svg" fill="#F9F9F9">
<path transform="translate(661,757)" d="m0 0h42l31 4 25 6 25 9 16 7 20 11 15 10 16 12 15 13 16 16 9 11 13 17 8 13 10 18 8 17 9 25 3 10v3h1042l17 2 12 5 11 7 11 11 8 13 5 12v33l-2 1-4 10-9 13-8 8-9 6-11 5-14 3-1049 1-2 9-8 24-11 24-12 21-13 19-12 14-11 12-10 10-11 9-13 10-15 10-16 9-16 8-20 8-24 7-25 5-27 3h-26l-22-2-22-4-19-5-18-6-23-10-17-9-17-11-16-12-14-12-20-20-8-10-14-19-9-15-12-23-8-20-8-24-368-1-13-3-12-6-10-8-7-7-7-11-6-15v-30l7-15 6-9 9-10 14-9 11-4 15-2h362l3-12 9-25 7-15 7-14 8-13 11-16 18-22 15-15 8-7 17-13 13-9 19-11 21-10 19-7 24-7 22-4zm14 129-18 2-19 5-19 8-14 9-13 10-14 14-10 14-6 10-7 14-6 19-3 17-1 20 2 19 5 21 8 19 9 15 8 10 11 12 10 9 15 10 16 8 17 6 14 3 7 1h33l20-4 19-7 14-7 16-11 12-11 8-8 11-15 10-19 6-17 4-18 1-24-2-21-5-19-6-15-9-17-10-13-9-10-10-9-14-10-15-8-19-7-19-4-12-1z"/>
<path transform="translate(1352,203)" d="m0 0h25l23 2 23 4 25 7 21 8 23 11 21 13 15 11 11 9 13 12 12 12 9 11 10 13 14 22 8 16 8 17 11 33 9 1 360 1 13 3 13 7 10 8 7 8 8 14 2 7h2v33l-8 16-6 9-8 9-13 8-10 4-16 3h-224l-139 1-6 19-6 17-8 18-12 21-8 12-9 12-11 13-11 12-8 8-11 9-10 8-18 12-21 12-15 7-21 8-26 7-23 4-18 2h-36l-31-4-21-5-25-8-20-9-21-11-15-10-16-12-14-12-18-18-9-11-12-16-10-16-10-18-10-23-9-28-127-1h-918l-13-2-12-5-11-7-6-5-10-13-5-10-3-8v-31l4-9 5-9 6-8 5-5 8-7 14-7 12-3 1052-1 4-16 8-22 12-25 11-18 10-14 11-14 4-5h2l2-4 15-15 11-9 17-13 19-12 23-12 26-10 22-6 21-4 14-2zm11 129-22 2-17 4-16 6-17 9-12 9-10 9-9 9-10 13-9 16-8 19-5 21-1 9v25l3 18 6 20 9 19 9 13 9 11 10 10 13 10 15 9 16 7 17 5 10 2 10 1h22l19-3 20-6 17-8 15-10 11-9 13-13 10-14 9-16 7-19 4-17 1-8v-28l-2-14-4-15-6-16-8-15-10-14-12-13-9-8-13-9-19-10-18-6-14-3-21-2z"/>
<path transform="translate(1359,1310)" d="m0 0h11l28 2 24 4 20 5 27 10 21 10 17 10 17 12 14 11 15 14 11 11 9 11 12 16 11 18 8 14 10 23 10 29 1 2 81 1h286l13 3 14 7 10 8 9 11 8 16 2 3v33h-2l-1 6-7 13-11 13-10 7-13 6-15 3h-365l-3 11-7 21-8 18-11 21-10 16-13 17-8 10h-2l-2 4-16 16-11 9-13 10-14 9-17 10-21 10-22 8-22 6-30 5-11 1h-38l-26-3-26-6-24-8-23-10-23-13-20-14-13-11-10-9-16-16-9-11-11-15-12-19-10-19-10-25-6-19v-3l-1048-1-14-3-10-4-11-8-11-11-8-13-4-11v-30l7-16 7-10 4-5 10-8 14-7 12-3h951l99-1 4-9 8-24 9-20 8-15 10-16 11-15 11-13 4-5 15-15 11-9 10-8 13-9 16-10 15-8 24-10 26-8 24-5 17-2zm-10 130-17 3-17 5-17 8-15 10-11 9-12 12-12 16-6 11-8 18-6 24-1 8v26l3 18 4 14 6 15 10 18 13 16 11 11 15 11 16 9 17 7 16 4 14 2h26l22-4 20-7 17-9 10-7 10-8 14-14 10-14 9-16 6-15 4-16 2-13v-28l-3-18-6-20-8-16-7-12-8-10-9-10-10-9-15-10-17-9-21-7-18-3z"/>
<path transform="translate(2047,1595)" d="m0 0"/>
<path transform="translate(2047 1e3)" d="m0 0"/>
<path transform="translate(2047,487)" d="m0 0"/>
</svg>
