<?xml version="1.0" encoding="utf-8"?>
<!-- Generator: Adobe Illustrator 21.1.0, SVG Export Plug-In . SVG Version: 6.00 Build 0)  -->
<!DOCTYPE svg PUBLIC "-//W3C//DTD SVG 1.1//EN" "http://www.w3.org/Graphics/SVG/1.1/DTD/svg11.dtd">
<svg version="1.1" id="Layer_1" xmlns="http://www.w3.org/2000/svg" xmlns:xlink="http://www.w3.org/1999/xlink" x="0px" y="0px"
	 viewBox="0 0 202 204" style="enable-background:new 0 0 202 204;" xml:space="preserve">
<style type="text/css">
	.st0{opacity:0.2;fill:#20272D;enable-background:new    ;}
	.st1{fill:#FFFFFF;}
	.st2{fill:#C61E00;}
	.st3{fill:#002C80;}
	.st4{fill:none;}
</style>
<polygon class="st0" points="202.1,166.3 101.1,203 0,166.3 0,0 202.1,0 "/>
<polygon class="st1" points="200.1,158.3 101.1,194 2,158.3 2,0 200.1,0 "/>
<g>
	<g>
		<path class="st2" d="M47.4,119.1l-17.4,8l-1.2-2.9l10.1-4.4v-0.1L26.2,116l8.2-10.3v-0.1l-10.8,2.2l-0.8-3l18.8-3.6l-10.5,13.2
			L47.4,119.1z"/>
		<path class="st2" d="M33.5,132.8l21.7-3l-7.9,20.4l-2.4-2l3.1-7.9l-4.9-6l-8.5,1.3L33.5,132.8z M49.2,137.8l2-4.8l-5.3,0.7
			L49.2,137.8z"/>
		<path class="st2" d="M62.6,138.5l4.9,3c4.7,2.9,6.8,8.7,3.9,13.4c-3,4.7-9.1,5.3-13.8,2.4l-4.9-3L62.6,138.5z M56.6,154l1.5,1
			c4.2,2.6,8.2,2,10.5-1.5c2.1-3.4,1.1-7.5-2.2-9.5l-2.5-1.6L56.6,154z"/>
		<path class="st2" d="M79.7,148.1l9.7,2.8v2.6l-7.4-2.1l-1.5,5.2l5.9,1.7l-0.7,2.3l-5.9-1.7l-1.6,5.6l8.4,2.4l-1.8,2.1l-10.2-3
			L79.7,148.1z"/>
		<path class="st2" d="M101.8,151.8l3.1-0.3l0.8,18.6l-3.1,0.3L101.8,151.8z"/>
		<path class="st2" d="M117.2,168.7l-2.8,1l-5.3-18.5l16.5,8.5l-3.3-11.7l2.8-1l5.3,18.7l-16.6-8.7L117.2,168.7z"/>
		<path class="st2" d="M144.5,133l2.2-2.3l8.6,9.3c3.3,3.5,1.7,7.4-0.9,9.8c-2.6,2.4-6.6,3.7-9.9,0.2l-8.5-9.1l2.2-2.3l8.1,8.7
			c2.5,2.7,4.7,2.2,6.4,0.6c1.7-1.6,2.3-3.7-0.2-6.4L144.5,133z"/>
		<path class="st2" d="M157.8,121.5c-1.8,0.3-3.2,0.8-4,2.1c-0.9,1.5-0.7,3.3,0.7,4.1c3.4,2,6.5-6.7,12-3.4c2.7,1.6,3.5,5.3,1.6,8.4
			c-1.4,2.3-3.4,3.4-5.9,3.7l-0.6-2.9c1.9-0.1,3.5-0.8,4.3-2.2c0.9-1.6,0.5-3.4-0.9-4.2c-3.6-2.2-6.4,6.8-12.1,3.4
			c-2.6-1.6-3.2-5.2-1.3-8.2c1.3-2.2,3.3-3.1,5.5-3.4L157.8,121.5z"/>
		<path class="st2" d="M173.5,122.2l-15.3-15.7l21.1-5.8l-0.2,3.1l-8.2,2.2l-1.9,7.5l6.1,6.1L173.5,122.2z M168.2,106.6l-5,1.2
			l3.8,3.8L168.2,106.6z"/>
	</g>
	<path class="st3" d="M138.4,67.5l-1.5-2.1l-1.7,0.4c-0.3,0.1-0.9-0.1-1.1-0.4l-1.3-1.6c-0.2-0.2-0.2-0.9-0.1-1.2l0.8-1.4
		c-0.6-0.7-1.2-1.3-1.9-1.9l-1.4,0.8c-0.3,0.1-0.9,0.1-1.2-0.1l-1.6-1.3c-7.6,2.8-12.7,5.4-19.9,15.5c-2.5,3.6-5.4,8.1-7.1,10.6
		c-1.9-3.8-3.8-8.2-5.5-11.6c-4.4-8.7-12.7-16.7-17.3-18.3c-5-1.7-34.6-12-50.2-26.5c0.2,8.8,9.6,16.4,13.9,18.2
		c-9.7-2.2-16.4-8.5-18.5-10C22.3,46.8,36.7,52,38.5,53.1c-7.6-0.3-13.8-5.2-15.5-5.8c0,3.7,8.3,11.2,16.2,13.4
		c-5.8,0.5-9.1-1.8-10.5-2c-0.1,1.9,5.4,8.9,17,8.8c-2.7,1.5-5.9,0.6-6.8,0.7c-0.2,1.9,9,5.8,14.4,4.9c-0.1,1.1-2.7,1.1-4.1,1.2
		c0.8,2.5,9,3.4,12.5,2.8c-0.9,1.1-3.5,1.4-4.7,1.3c0.5,2.4,7.9,2.5,8.8,2.8c-0.4,0.8-0.8,1-0.9,2.1c0.2,0.6,5.9,4.2,12,7.1
		c2.5,1.2,5,2.2,7.3,2.7c4.2,1,6.5,3.3,6.7,4.3c-0.6,4.2-9,4.5-13,4.9c-2.2,0.3-12.4,1.7-15,4.1c0.7,1,4.7,1.9,5.4,2.4
		c-0.3,0.9-1.4,1.6-1.7,3.1c1.4,0.7,5.8,0.4,6.7,0.6c-0.5,0.6-1.5,1.8-2,2.9c4.3,1.1,7.1,0.1,8,0.1c-0.5,0.8-2.1,3.1-1.7,4
		c2.1,0.3,4.8-0.8,5.2-0.8c0.2,0.9-0.7,2.1-0.4,3.2c0.9-0.2,3.6-0.9,4.6-1.5c0.5,1,0,2.3,0.9,3.3c1.4-0.8,1.8-7.6,8.6-11
		c2.1-1.1,5.8,7.2,5.9,6.5s2.3-2,2.3-1.4c0.5,3.9,2.2,5.3,2.2,5.3c0.1-0.4,0.3-0.8,0.7-0.9c0.2-0.1,0.5-0.1,0.7-0.1
		c0.2,0.4,0.5,0.7,0.6,1.1c0.3,0.9-0.1,2.4-0.7,2.8s-1.5,0.4-2.1,0.7c-0.9,0.6-1.4,1.7-1.3,3h0.3c0.4-1.6,1.3-0.7,2.5-1.2
		c0.7-0.3,1.2-1,1.8-1.3c0.8-0.4,3.6,0.3,4.1,0.6s1,1,1.3,1.5l0.2,0.7h0.4c0.3-0.9,0.2-1.3,0.1-2.3l0.1-0.1c0.8,0.2,1.3,0.6,1.8,1.1
		c0.2-0.1,0.2,0,0.3-0.2c0.4-0.5,0-1.2-0.1-1.8c1.1,0,1.2,0.7,2,0.9c0.1-0.2,0.2-0.4,0.3-0.7c-0.2-0.2-0.2-0.5-0.4-0.7
		c-0.3-0.4-1.9-0.9-2.4-1.1c-0.6-0.2-1.5-0.3-2.3-0.4l-1.1-0.4l-0.7-0.4c-1.7-1.8-1.8-2.5-1.8-5.7l0.2-0.2h0.6
		c1,0.7,2.6,0.8,2.7,2.2c-1,0.7-1,2.3-1.3,3.6l0.6,0.3l0.1-0.2c0.2-0.2,0.3-0.7,0.6-0.9l1.3-0.5c1.2-0.7,2.2-1.7,3.6-2.2
		c1.3-0.4,1.9,0.1,2.7,0.4c0.2,0.1,0.1,0.1,0.2,0c0.2-0.2,0.2-0.5,0.2-0.9c-0.3-0.2-0.5-0.6-0.7-0.9c0.3-0.2,0.6-0.2,1.1-0.2
		c0.3,0.2,0.8,0.4,1.2,0.5l0.1-0.3l-0.3-0.7c-0.3-0.4-0.7-0.3-0.7-0.9l0.1-0.1c0.6-0.1,1.3-0.1,2-0.1v-0.3c-2.8-1.8-5.1,1.4-7.8,1.5
		c-0.5-0.5-1.1-0.9-1.4-1.6l-1.1-4.2c-0.3-0.8-1-1.5-1.4-2.2c-1.2-2.2-4.3-5.2-4-7.4c0.3-2.1,13.2-6.1,12.1,1
		c4.8-2.1,6.2-5.2,3.4-8.3c0.7-3.1-6.7-7.6-11.9-8c2.3-11.1,8.6-14.1,24-18.1c-0.1-0.3,0-0.8,0.1-1L138.4,67.5z"/>
	<path class="st1" d="M122.9,96.4c4.7,3.1,0.1,6.4,0.1,6.4c-0.1-0.7-1.1-1.8-2.5-2.7c-1.5-1-6.3-1.4-13.3,3.5c0,0,0.3-3.3,0.5-3.9
		c-0.8,0.1-3.5-1.8-3.5-1.8c0.8-0.5,2.6-2.2,2.6-2.2c-1-0.2-3.5-1.4-3.5-1.4c1.2-0.8,2.9-1.3,2.9-1.3c-0.6-0.6-1.2-1.4-1.8-2.4
		c0.7-0.3,1.8-0.6,2.8-0.8c-1.5-1-2.8-1.8-3.6-2.5c3.6,0.2,7.5,0.8,9,1.1c4.2,0.9,7.5,2.6,8.7,3.5C122.4,92.7,124.5,94.6,122.9,96.4
		z"/>
	<path class="st3" d="M150.4,66.3c-2.4-4.7-5.4-9-9-12.8c1.1-0.5,2.3-1,3.5-1.6c9.6-4.6,16.1-12,20.5-17.9c1.7,2-3,11.4-8.8,15.9
		c2.5-1.1,8.2-3.6,11.1-7.2c0,2.4-3.6,10.3-13.7,14.1c0,0,7.3-0.7,12.7-4.4c-0.2,0.4-1.1,6.9-16.2,9.8c0,0,2.2,1.6,6.2,2.1
		C156.6,64.4,154.1,66.2,150.4,66.3z"/>
	<path class="st3" d="M118.8,92.8c0.5,0.3,0.6,1,0.3,1.5c-0.1,0.1-0.2,0.2-0.3,0.3c0.4,0,1.7-0.1,3,0c-1-2.4-6.1-4.1-7.6-4.6
		c1.9,0.9,2.9,1.9,3.6,2.7C118.1,92.6,118.5,92.6,118.8,92.8z"/>
	<path class="st2" d="M54.4,78.6c-1.4,5-1.8,9.3-1.8,14.6c0,26.6,21.6,47.3,48.2,47.3S149,118.9,149,92.3s-21.6-48.2-48.2-48.2
		c-9.3,0-18.4,2.4-27.6,8.7L66.3,50c11-8.7,22.5-12.4,35.1-12.4c30.1,0,53.9,24.6,53.9,54.7s-24.4,54.5-54.5,54.5
		s-54.5-24.1-54.5-54.2c0-6.2,0.6-10,2.5-16.3c0.5,0.6,1.2,1,1.8,1.3c1,0.5,2.4,0.8,3.7,1.1L54.4,78.6z"/>
	<path class="st3" d="M56.5,80.1l-0.6,2.1l2,1.4l-0.3,1.9L55.3,86c-0.2,1.3-0.2,2.8-0.3,4.3l2.2,0.9v1.9l-2.2,1c0,0.8,0,1.6,0.5,4.3
		l2.2,0.5l0.3,1.9l-2,1.3c0.2,1.1,0.5,2.2,1.3,4.1l2.4,0.2l0.6,1.7l-1.7,1.7c0.3,0.9,0.6,1.9,1.7,3.8l2.4-0.3l0.9,1.7l-1.4,1.9
		c0.6,1.1,1.4,2.2,2.4,3.3l2.4-0.6l1,1.4l-1.1,2.2c0.9,0.9,2,1.9,3,2.8l2-1.1l1.6,1.3l-0.6,2.4l3.3,2.4l1.9-1.4l1.7,0.9l-0.3,2.4
		c1.3,0.6,2.5,1.3,3.9,1.7l1.6-1.7l1.7,0.6l0.2,2.4c1.4,0.5,2.7,0.8,4.1,1.1l1.3-1.9l1.9,0.3l0.5,2.4c1.4,0.2,2.8,0.2,4.3,0.3
		l0.9-2.2h1.9l0.9,2.2c0.8,0,1.6,0,4.3-0.5l0.5-2.2l1.9-0.3l1.3,2c1.1-0.2,2.2-0.5,4.1-1.3l0.2-2.4l1.7-0.6l1.7,1.7
		c0.9-0.3,1.9-0.6,3.8-1.7l-0.3-2.4l1.7-0.9l1.9,1.4c1.1-0.6,2.2-1.4,3.3-2.4l-0.6-2.4l1.6-1.3l2.2,1.1c0.9-0.9,1.9-2,2.8-3l-1.1-2
		l1.3-1.6l2.4,0.6l2.4-3.3l-1.4-1.9l0.9-1.7l2.4,0.3c0.6-1.3,1.3-2.5,1.7-3.9l-1.7-1.6l0.6-1.7l2.4-0.2c0.5-1.4,0.8-2.7,1.1-4.1
		l-1.9-1.3l0.3-1.9l2.4-0.5c0.2-1.4,0.2-2.8,0.3-4.3l-2.2-0.9V91l2.2-0.9c0-0.8,0-1.6-0.5-4.3l-2.2-0.5l-0.3-1.9l1.9-1.3
		c-0.2-1.1-0.5-2.2-1.1-4.1l-2.4-0.2l-0.6-1.7l1.7-1.6c-0.3-1.3-0.9-2.5-1.7-3.9l-2.4,0.3l-0.9-1.7l1.4-1.9l-2.4-3.3l-2.4,0.6
		l-1.3-1.6l1.1-2c-0.9-1.1-1.9-2.1-3-3l-2,1.1l-1.6-1.3l0.6-2.4l-3.3-2.4l-1.9,1.4l-1.7-0.9l0.3-2.4c-1.3-0.6-2.5-1.3-3.8-1.7
		l-1.7,1.7l-1.7-0.6l-0.2-2.4c-1.4-0.5-2.7-0.8-4.1-1.1l-1.3,1.9l-1.9-0.3l-0.5-2.4c-1.3-0.2-2.7-0.2-4.3-0.3l-0.9,2.2h-1.9L99,46.4
		c-1.3,0-2.7,0.2-4.3,0.3l-0.5,2.4l-1.9,0.3L91,47.5c-1.1,0.2-2.2,0.3-4.1,0.9l0,2.6l-1.7,0.6l-1.7-1.7c-0.9,0.3-1.7,0.6-3.8,1.7
		L80,54l-1.3,0.7c-0.2-0.1-0.4-0.2-0.6-0.2l-0.8-0.3l-0.9-0.7L76,53.7l-1.5-0.5c7.5-4.8,16-8,26.5-8c26,0,47.1,21.2,47,47.2
		c0,26-21.2,47.1-47.2,47c-26,0-47.1-21.2-47-47.2c0-4.5,0.6-9.1,2-13.5h0.4c0,0.2,0,0.3,0,0.5C56.2,79.6,56.3,79.9,56.5,80.1z"/>
	<path class="st1" d="M25.9,42.1c-0.6,1,3.6,6.4,0.5,2.2c-0.9-1.3-1.6-2.7-2-4.2c3.1,2.4,8.5,6.5,15.9,8.4
		C40.2,48.5,33.6,47.7,25.9,42.1z"/>
	<path class="st1" d="M28,52.9c-0.5,0.6,2.7,3.1,1.1,1.9c-1.3-1.2-2.7-2.8-3.4-3.8c2.7,1.6,7.3,4.1,12.6,4.5
		C38.3,55.5,32.4,55.1,28,52.9z"/>
	<path class="st1" d="M33.3,62.8c-0.3,0.3,0.6,1,1.7,1.9c-1.9-1.1-3.1-2.3-3.9-3.3c1.6,0.6,3.9,1.3,7,1.3c0.4,0,0.8,0,1.2,0
		C39.2,62.7,36.6,63,33.3,62.8z"/>
	<path class="st1" d="M44,70.5c0,0.3,0.3,0.6,1.5,1.1c-1.4-0.5-2.7-1.1-3.7-1.6c0.1,0,0.3,0,0.4,0c1.4,0,2.6-0.2,3.7-0.7
		C45.8,69.3,44,70.1,44,70.5z"/>
	<path class="st1" d="M53.2,75.7c0.2,0.2,4.1,1.1,4.1,1.1c-2.3-0.2-4.3-0.6-5.6-1.1c0.7-0.1,1.4-0.3,1.9-0.7
		C53.6,75,53,75.5,53.2,75.7z"/>
	<path class="st1" d="M77.9,58.8C39.5,41.4,34,35.8,32.6,36.4c-0.9,0.4,0.9,3,1.9,4.7c-2.4-2.5-4.6-5.7-5.4-9.1
		c14.6,12.3,38.5,21.3,48.5,24.7c4.4,1.5,12.5,9.4,16.7,17.7c0.9,1.7,1.8,3.7,2.8,5.8c0.5,1.2,1.1,2.4,1.6,3.5
		C98.8,83.8,91.1,64.8,77.9,58.8z"/>
	<path class="st1" d="M160.2,57.5c-0.6-0.1-6.3,0.8-6.3,0.8c1.4-0.2,5.3-0.8,9.2-2.6c-1.2,1.3-3.1,2.7-6.3,4
		C158.4,58.6,160.2,58,160.2,57.5z"/>
	<path class="st1" d="M163.3,48.4c-0.4,0-6.2,2.5-6.2,2.5c3.3-1.4,5.9-2.9,8-4.4c-0.9,1.6-2.3,3.5-4.4,5.3
		C161.8,50.7,163.5,48.8,163.3,48.4z"/>
	<path class="st1" d="M161.5,41.5c-3.2,3.6-12.1,9.1-12.1,9.1c6.5-4,11.2-9.1,14.6-13.4c-0.6,2-2,4.6-3.7,7
		C159,46.1,162,42.2,161.5,41.5z"/>
	<path class="st1" d="M152.2,64.9c-0.3-0.3-2.5-1.5-2.5-1.5c0.8,0.4,2.2,1.1,4.1,1.5c-0.7,0.3-1.6,0.7-2.8,0.9
		C150.6,65.8,152.2,65.3,152.2,64.9z"/>
	<path class="st1" d="M106,128.8c0.2-0.3,0.4-0.6,0.7-0.7c0.2-0.1,0.5-0.2,0.8-0.3c0.4-0.1,0.8-0.4,1.2-0.7c0.8-0.5,1.3-1.9,1.1-3.1
		c0.3,0.3,0.6,0.6,0.8,0.6l0,0h0.1c0.1,0,0.3-0.1,0.3-1.8c0,0.1,0.1,0.3,0.1,0.3c0.2,0.5,0.2,0.5,0.9,1.3l0.6,0.6l0.8,0.5l1.2,0.4
		c0.4,0.1,0.8,0.2,1.2,0.2c0.4,0.1,0.8,0.1,1.1,0.2c0.4,0.1,0.7,0.2,1,0.4c-0.1,0-0.2,0-0.2,0h-0.8l0.1,0.8c0,0.2,0.1,0.4,0.2,0.6
		l0,0c-0.4-0.3-0.8-0.5-1.3-0.6l-0.4-0.1l-0.6,0.1c0,0,0,1.2,0.1,1.2c-0.2-0.3-0.6-0.6-1-0.9c-0.5-0.3-2.4-0.8-3.7-0.8
		c-0.5,0-0.8,0.2-1,0.3c-0.3,0.2-0.7,0.3-0.9,0.6c-0.3,0.3-0.5,0.5-0.8,0.6s-0.6,0.1-0.9,0.1C106.5,128.8,106.3,128.8,106,128.8
		L106,128.8z"/>
	<path class="st1" d="M114.4,123.1c0.1-0.7,0.3-1.3,0.7-1.6l0.3-0.2v-0.4c-0.1-0.8-0.5-1.4-1-1.7c0.5,0.1,0.9,0.3,1.1,0.3
		c0.1,0,0.1,0,0.2,0c0.3-0.1,0.4-0.7,0.3-1.2c0.3,0.3,0.5,0.6,0.8,0.8c0.1,0.1,0.3,0.2,0.4,0.3l0.2,0.2h0.3c1.2,0,2.3-0.6,3.4-1.1
		c0.6-0.3,1.1-0.6,1.6-0.7v0.2c0,0.3,0.2,0.5,0.3,0.7l0,0c-0.4,0-0.9,0-1.3,0.3l-0.5,0.3l0.2,0.5c0.1,0.2,0.2,0.5,0.3,0.7
		c-0.3-0.1-0.7-0.2-1.2-0.2c-0.4,0-0.7,0.1-1.1,0.2c-1.1,0.4-1.9,1-2.7,1.5c-0.4,0.3-0.7,0.5-1.1,0.7L114.4,123.1z"/>
	<path class="st1" d="M88.6,121.8c-0.1-0.3-0.1-0.7-0.3-1l-0.5-1l-1,0.6c-0.5,0.3-1.8,0.7-2.9,1c0-0.1,0-0.2,0.1-0.2
		c0.2-0.6,0.3-1.2,0.2-1.8l-0.1-0.8l-0.8-0.1h-0.1c-0.3,0-0.6,0.1-1.2,0.3c-0.7,0.2-1.8,0.5-2.8,0.6c0.3-0.6,0.8-1.4,1-1.8
		c0.2-0.3,0.3-0.5,0.4-0.7l0.9-1.6l-1.8,0.1c-0.3,0-0.6,0.1-1,0.2c-0.7,0.1-1.7,0.3-3.1,0.3c-0.8,0-1.5-0.1-2.3-0.2
		c0.4-0.7,0.9-1.2,1.2-1.5l1.4-1.5l-2-0.3c-0.3,0-0.9-0.1-1.8-0.1s-2.6,0-3.8-0.2c0.2-0.3,0.4-0.6,0.6-0.8c0.3-0.4,0.6-0.8,0.8-1.3
		l0.3-0.7l-0.6-0.5c-0.4-0.3-1-0.5-2.1-0.9c-0.5-0.2-1.3-0.4-1.9-0.7c3-1.4,9.3-2.6,13.2-3c0.5-0.1,1-0.1,1.6-0.2
		c0.7-0.1,1.5-0.2,2.3-0.3l-0.5,2.6l3.8,0.2l-3.8,4.2l6.7-1.9l-0.6,2.9L92,112l-3,3l4,0.2C90.5,117.3,89.4,119.9,88.6,121.8
		L88.6,121.8z"/>
	<g>
		<path class="st2" d="M162,62.2c0.5,0,1,0.1,1.5,0.4c0.5,0.3,0.9,0.6,1.2,1.1c0.3,0.5,0.4,1,0.4,1.6c0,0.5-0.1,1-0.4,1.5
			c-0.3,0.5-0.7,0.9-1.1,1.1c-0.5,0.3-1,0.4-1.5,0.4s-1-0.1-1.5-0.4s-0.9-0.7-1.1-1.1c-0.3-0.5-0.4-1-0.4-1.5s0.1-1.1,0.4-1.6
			c0.3-0.5,0.7-0.9,1.2-1.1C161,62.4,161.5,62.2,162,62.2z M162,62.7c-0.4,0-0.9,0.1-1.3,0.3c-0.4,0.2-0.7,0.5-1,1
			c-0.2,0.4-0.3,0.8-0.3,1.3c0,0.4,0.1,0.9,0.3,1.3s0.5,0.7,1,1c0.4,0.2,0.8,0.3,1.3,0.3c0.4,0,0.9-0.1,1.3-0.3c0.4-0.2,0.7-0.5,1-1
			c0.2-0.4,0.3-0.8,0.3-1.3c0-0.4-0.1-0.9-0.3-1.3s-0.6-0.7-1-1C162.9,62.9,162.5,62.7,162,62.7z M160.7,67v-3.3h1.1
			c0.4,0,0.7,0,0.8,0.1c0.2,0.1,0.3,0.2,0.4,0.3c0.1,0.2,0.2,0.3,0.2,0.5s-0.1,0.5-0.3,0.6c-0.2,0.2-0.4,0.3-0.7,0.3
			c0.1,0,0.2,0.1,0.3,0.2s0.3,0.4,0.5,0.7l0.4,0.7h-0.7l-0.3-0.5c-0.2-0.4-0.4-0.7-0.6-0.8c-0.1-0.1-0.2-0.1-0.4-0.1h-0.3V67H160.7z
			 M161.2,65.2h0.7c0.3,0,0.5,0,0.6-0.1s0.2-0.2,0.2-0.4c0-0.1,0-0.2-0.1-0.3c-0.1-0.1-0.1-0.1-0.2-0.2c-0.1,0-0.3-0.1-0.5-0.1h-0.6
			L161.2,65.2L161.2,65.2z"/>
	</g>
	<path class="st1" d="M109,74.9c-1.4,2-2.9,4.3-4.3,6.4c10.1-15,20.2-20.3,23.2-21.6l0,0C120.9,62.4,115.9,65.2,109,74.9z"/>
	<line class="st4" x1="100.8" y1="87.7" x2="100.8" y2="96.6"/>
	<line class="st4" x1="105.3" y1="92.2" x2="96.3" y2="92.2"/>
	<g>
		<path class="st2" d="M142.3,24.4c4.9,3,7.2,9.5,4,14.5c-3.1,5.1-9.9,5.9-14.8,2.9c-4.9-3-7.2-9.5-4-14.5
			C130.6,22.3,137.4,21.4,142.3,24.4z M133.2,39.2c3.4,2.1,8,1.3,10.1-2.1c2.1-3.4,0.7-7.9-2.7-10s-8-1.3-10.1,2.1
			C128.4,32.6,129.7,37.1,133.2,39.2z"/>
	</g>
	<path class="st2" d="M71.1,30l1.4-5.5l4.4,3.2L71.1,30L71.1,30z M68.4,41.7l2.1-8.9l8.6-3.4l7.4,5.2l3.2-1.9L70.6,19.5l-5.7,22.7
		L68.4,41.7L68.4,41.7z"/>
	<polygon class="st2" points="93.6,33.1 107,32.8 108.3,30 97.2,30.3 96.8,14 93.1,14.3 	"/>
	<polygon class="st2" points="113.3,34.3 117,34.9 120.6,19.1 126.8,20.5 127.3,18 111.8,14.4 110.2,16.7 117,18.2 	"/>
</g>
<polygon class="st2" points="200.1,165.3 101.1,201 2,165.3 2,158.3 101.2,194 200.1,158.3 "/>
</svg>
